<?xml version="1.0" encoding="UTF-8"?>
<svg xmlns="http://www.w3.org/2000/svg" viewBox="0 0 370 100" width="370" height="100">
  <g transform="translate(8, 8) scale(0.34)">
    <polygon points="80,40 100,90 50,80" fill="#1e293b" />
    <polygon points="176,40 156,90 206,80" fill="#0f172a" />
    <polygon points="128,50 100,90 128,110" fill="#3b82f6" />
    <polygon points="128,50 156,90 128,110" fill="#2563eb" />
    <polygon points="128,110 50,80 30,120 90,120" fill="#64748b" />
    <polygon points="128,110 206,80 226,120 166,120" fill="#94a3b8" />
    <polygon points="90,120 30,120 60,170 110,150" fill="#0a0e14" />
    <polygon points="166,120 226,120 196,170 146,150" fill="#0a0e14" />
    <circle cx="75" cy="140" r="18" fill="#00d4aa" />
    <circle cx="75" cy="140" r="6" fill="#111820" />
    <circle cx="181" cy="140" r="18" fill="#00d4aa" />
    <circle cx="181" cy="140" r="6" fill="#111820" />
    <polygon points="128,125 105,155 128,200" fill="#f5a623" />
    <polygon points="128,125 151,155 128,200" fill="#d97706" />
    <polygon points="110,150 60,170 90,210 128,190" fill="#1e293b" />
    <polygon points="146,150 196,170 166,210 128,190" fill="#0f172a" />
  </g>

  <line x1="102" y1="18" x2="102" y2="82" stroke="#1e293b" stroke-width="2" stroke-dasharray="4 4" />

  <path d="M 10.969 29.989 L 10.969 18.915 L 29.274 18.915 L 29.274 13.130 L 10.969 13.130 L 10.969 0.000 L 3.478 0.000 L 3.478 35.774 L 29.859 35.774 L 29.859 29.989 L 10.969 29.989 Z M 61.493 13.764 Q 61.493 7.085 57.788 3.283 Q 54.083 -0.512 47.534 -0.512 Q 41.107 -0.512 37.451 3.299 Q 33.795 7.109 33.795 13.764 Q 33.795 20.386 37.451 24.180 Q 41.107 27.983 47.681 27.983 Q 54.416 27.983 57.951 24.310 Q 61.493 20.646 61.493 13.764 Z M 54.034 13.764 Q 54.034 18.663 52.434 20.873 Q 50.833 23.083 47.786 23.083 Q 41.286 23.083 41.286 13.764 Q 41.286 9.165 42.871 6.768 Q 44.463 4.371 47.453 4.371 Q 54.034 4.371 54.034 13.764 Z M 67.159 0.000 L 67.159 21.027 Q 67.159 23.286 67.094 24.797 Q 67.029 26.309 66.956 27.471 L 73.757 27.471 Q 73.838 27.016 73.960 24.692 Q 74.090 22.368 74.090 21.604 L 74.195 21.604 Q 75.235 24.505 76.048 25.683 Q 76.860 26.861 77.974 27.430 Q 79.095 28.007 80.769 28.007 Q 82.142 28.007 82.979 27.625 L 82.979 21.661 Q 81.248 22.043 79.932 22.043 Q 77.267 22.043 75.780 19.882 Q 74.293 17.721 74.293 13.479 L 74.293 0.000 L 67.159 0.000 Z M 94.123 27.471 L 94.123 12.058 Q 94.123 4.826 98.998 4.826 Q 101.590 4.826 103.174 7.044 Q 104.759 9.271 104.759 12.748 L 104.759 27.471 L 111.901 27.471 L 111.901 6.143 Q 111.901 2.641 112.104 0.000 L 105.295 0.000 Q 104.994 3.656 104.994 5.460 L 104.864 5.460 Q 103.442 2.340 101.241 0.910 Q 99.047 -0.512 96.024 -0.512 Q 91.661 -0.512 89.321 2.169 Q 86.989 4.851 86.989 10.026 L 86.989 27.471 L 94.123 27.471 Z M 142.315 8.027 Q 142.315 4.038 139.049 1.763 Q 135.791 -0.512 130.022 -0.512 Q 124.367 -0.512 121.353 1.276 Q 118.347 3.071 117.355 6.857 L 123.628 7.792 Q 124.164 5.842 125.464 5.029 Q 126.772 4.217 130.022 4.217 Q 133.020 4.217 134.394 4.973 Q 135.767 5.736 135.767 7.361 Q 135.767 8.686 134.662 9.457 Q 133.557 10.229 130.916 10.766 Q 124.871 11.960 122.759 12.984 Q 120.654 14.016 119.549 15.649 Q 118.444 17.290 118.444 19.679 Q 118.444 23.611 121.475 25.805 Q 124.514 28.007 130.079 28.007 Q 134.979 28.007 137.960 26.098 Q 140.942 24.196 141.682 20.589 L 135.360 19.931 Q 135.052 21.604 133.857 22.433 Q 132.663 23.262 130.079 23.262 Q 127.536 23.262 126.269 22.612 Q 125.001 21.962 125.001 20.442 Q 125.001 19.248 125.976 18.549 Q 126.951 17.851 129.267 17.396 Q 132.492 16.729 134.987 16.031 Q 137.489 15.340 139.000 14.373 Q 140.512 13.406 141.414 11.895 Q 142.315 10.384 142.315 8.027 Z M 155.115 -0.455 Q 151.963 -0.455 150.257 1.259 Q 148.559 2.974 148.559 6.451 L 148.559 22.652 L 145.081 22.652 L 145.081 27.471 L 148.916 27.471 L 151.150 33.922 L 155.619 33.922 L 155.619 27.471 L 160.827 27.471 L 160.827 22.652 L 155.619 22.652 L 155.619 8.377 Q 155.619 6.370 156.383 5.419 Q 157.147 4.469 158.739 4.469 Q 159.584 4.469 161.128 4.826 L 161.128 0.406 Q 158.487 -0.455 155.115 -0.455 Z M 176.641 -0.512 Q 170.449 -0.512 167.118 3.161 Q 163.795 6.833 163.795 13.861 Q 163.795 20.670 167.167 24.326 Q 170.547 27.983 176.746 27.983 Q 182.661 27.983 185.781 24.058 Q 188.909 20.134 188.909 12.569 L 188.909 12.366 L 171.286 12.366 Q 171.286 8.353 172.773 6.305 Q 174.260 4.266 176.998 4.266 Q 180.784 4.266 181.776 7.540 L 188.503 6.955 Q 185.578 -0.512 176.641 -0.512 Z M 176.641 23.489 Q 174.130 23.489 172.773 21.734 Q 171.416 19.979 171.335 16.835 L 182.003 16.835 Q 181.800 20.158 180.402 21.824 Q 179.005 23.489 176.641 23.489 Z M 194.315 0.000 L 194.315 21.027 Q 194.315 23.286 194.250 24.797 Q 194.185 26.309 194.112 27.471 L 200.913 27.471 Q 200.994 27.016 201.116 24.692 Q 201.246 22.368 201.246 21.604 L 201.352 21.604 Q 202.392 24.505 203.204 25.683 Q 204.017 26.861 205.130 27.430 Q 206.251 28.007 207.925 28.007 Q 209.298 28.007 210.135 27.625 L 210.135 21.661 Q 208.404 22.043 207.088 22.043 Q 204.423 22.043 202.936 19.882 Q 201.449 17.721 201.449 13.479 L 201.449 0.000 L 194.315 0.000 Z" fill="#e2e8f0" transform="translate(126.311, 60.000) scale(1, -1)" /><rect x="144" y="71" width="4" height="4" fill="#00d4aa" />
  
  <path d="M 1.042 0.000 L 1.042 5.929 L 1.882 5.929 L 1.882 0.686 L 4.835 0.686 L 4.835 0.000 L 1.042 0.000 Z M 6.288 5.929 L 9.905 5.929 L 9.905 5.242 L 8.517 5.242 L 8.517 0.686 L 9.905 0.686 L 9.905 0.000 L 6.288 0.000 L 6.288 0.686 L 7.678 0.686 L 7.678 5.242 L 6.288 5.242 L 6.288 5.929 Z M 13.935 0.000 L 13.064 0.000 L 10.845 5.929 L 11.728 5.929 L 13.135 1.965 Q 13.271 1.586 13.505 0.738 Q 13.680 1.394 13.873 1.965 L 15.271 5.929 L 16.154 5.929 L 13.935 0.000 Z M 16.914 0.000 L 16.914 5.929 L 20.953 5.929 L 20.953 5.242 L 17.754 5.242 L 17.754 3.388 L 20.690 3.388 L 20.690 2.711 L 17.754 2.711 L 17.754 0.686 L 21.133 0.686 L 21.133 0.000 L 16.914 0.000 Z M 28.696 5.242 L 28.696 3.071 L 31.668 3.071 L 31.668 2.378 L 28.696 2.378 L 28.696 0.000 L 27.857 0.000 L 27.857 5.929 L 31.773 5.929 L 31.773 5.242 L 28.696 5.242 Z M 37.354 2.992 Q 37.354 1.512 36.772 0.712 Q 36.189 -0.089 35.100 -0.089 Q 34.006 -0.089 33.429 0.698 Q 32.854 1.485 32.854 2.992 Q 32.854 4.473 33.425 5.247 Q 33.996 6.020 35.108 6.020 Q 36.194 6.020 36.773 5.258 Q 37.354 4.496 37.354 2.992 Z M 36.471 2.992 Q 36.471 5.335 35.108 5.335 Q 33.737 5.335 33.737 2.992 Q 33.737 1.806 34.084 1.200 Q 34.432 0.593 35.104 0.593 Q 35.820 0.593 36.144 1.208 Q 36.471 1.824 36.471 2.992 Z M 42.012 0.000 L 40.403 2.527 L 39.357 2.527 L 39.357 0.000 L 38.518 0.000 L 38.518 5.929 L 40.637 5.929 Q 41.661 5.929 42.196 5.504 Q 42.732 5.081 42.732 4.289 Q 42.732 3.634 42.322 3.185 Q 41.911 2.738 41.221 2.624 L 42.978 0.000 L 42.012 0.000 Z M 41.888 4.276 Q 41.888 5.257 40.553 5.257 L 39.357 5.257 L 39.357 3.191 L 40.588 3.191 Q 41.216 3.191 41.552 3.472 Q 41.888 3.753 41.888 4.276 Z M 43.919 0.000 L 43.919 5.929 L 47.957 5.929 L 47.957 5.242 L 44.758 5.242 L 44.758 3.388 L 47.694 3.388 L 47.694 2.711 L 44.758 2.711 L 44.758 0.686 L 48.137 0.686 L 48.137 0.000 L 43.919 0.000 Z M 52.282 0.000 L 49.997 4.965 Q 50.068 4.210 50.068 3.850 L 50.068 0.000 L 49.319 0.000 L 49.319 5.929 L 50.295 5.929 L 52.616 0.927 Q 52.537 1.560 52.537 2.132 L 52.537 5.929 L 53.292 5.929 L 53.292 0.000 L 52.282 0.000 Z M 58.966 1.626 Q 58.966 0.817 58.374 0.364 Q 57.783 -0.089 56.689 -0.089 Q 54.681 -0.089 54.356 1.485 L 55.169 1.648 Q 55.293 1.081 55.679 0.824 Q 56.066 0.567 56.712 0.567 Q 57.411 0.567 57.772 0.840 Q 58.135 1.112 58.135 1.613 Q 58.135 1.921 57.991 2.114 Q 57.849 2.308 57.616 2.430 Q 57.384 2.554 57.091 2.630 Q 56.799 2.707 56.501 2.782 Q 55.793 2.966 55.492 3.111 Q 55.191 3.257 55.010 3.442 Q 54.830 3.630 54.737 3.871 Q 54.646 4.113 54.646 4.438 Q 54.646 5.199 55.180 5.610 Q 55.715 6.020 56.712 6.020 Q 57.643 6.020 58.135 5.695 Q 58.627 5.370 58.821 4.597 L 57.994 4.452 Q 57.889 4.944 57.572 5.165 Q 57.256 5.387 56.707 5.387 Q 55.463 5.387 55.463 4.452 Q 55.463 4.188 55.580 4.023 Q 55.696 3.859 55.896 3.750 Q 56.096 3.644 56.361 3.573 Q 56.629 3.503 56.931 3.423 Q 57.543 3.270 57.810 3.165 Q 58.078 3.063 58.287 2.931 Q 58.496 2.800 58.645 2.618 Q 58.794 2.438 58.880 2.197 Q 58.966 1.956 58.966 1.626 Z M 60.297 5.929 L 63.914 5.929 L 63.914 5.242 L 62.526 5.242 L 62.526 0.686 L 63.914 0.686 L 63.914 0.000 L 60.297 0.000 L 60.297 0.686 L 61.686 0.686 L 61.686 5.242 L 60.297 5.242 L 60.297 5.929 Z M 66.190 2.992 Q 66.190 1.793 66.566 1.192 Q 66.942 0.593 67.716 0.593 Q 68.159 0.593 68.519 0.894 Q 68.880 1.195 69.131 1.832 L 69.829 1.547 Q 69.174 -0.089 67.706 -0.089 Q 66.551 -0.089 65.929 0.707 Q 65.307 1.503 65.307 2.992 Q 65.307 6.020 67.662 6.020 Q 69.153 6.020 69.710 4.548 L 68.972 4.262 Q 68.810 4.759 68.464 5.047 Q 68.119 5.335 67.667 5.335 Q 66.916 5.335 66.553 4.769 Q 66.190 4.202 66.190 2.992 Z M 76.324 0.000 L 76.324 5.929 L 80.363 5.929 L 80.363 5.242 L 77.163 5.242 L 77.163 3.388 L 80.100 3.388 L 80.100 2.711 L 77.163 2.711 L 77.163 0.686 L 80.543 0.686 L 80.543 0.000 L 76.324 0.000 Z M 84.688 0.000 L 82.403 4.965 Q 82.473 4.210 82.473 3.850 L 82.473 0.000 L 81.725 0.000 L 81.725 5.929 L 82.701 5.929 L 85.021 0.927 Q 84.942 1.560 84.942 2.132 L 84.942 5.929 L 85.697 5.929 L 85.697 0.000 L 84.688 0.000 Z M 91.253 0.585 Q 90.246 -0.089 89.222 -0.089 Q 88.124 -0.089 87.517 0.727 Q 86.910 1.543 86.910 2.992 Q 86.910 4.518 87.490 5.269 Q 88.071 6.020 89.235 6.020 Q 90.757 6.020 91.261 4.566 L 90.510 4.320 Q 90.159 5.335 89.245 5.335 Q 88.501 5.335 88.147 4.781 Q 87.794 4.227 87.794 2.992 Q 87.794 0.593 89.293 0.593 Q 89.591 0.593 89.911 0.685 Q 90.233 0.778 90.435 0.918 L 90.435 2.395 L 89.148 2.395 L 89.148 3.098 L 91.253 3.098 L 91.253 0.585 Z M 92.702 5.929 L 96.319 5.929 L 96.319 5.242 L 94.931 5.242 L 94.931 0.686 L 96.319 0.686 L 96.319 0.000 L 92.702 0.000 L 92.702 0.686 L 94.092 0.686 L 94.092 5.242 L 92.702 5.242 L 92.702 5.929 Z M 100.890 0.000 L 98.605 4.965 Q 98.676 4.210 98.676 3.850 L 98.676 0.000 L 97.927 0.000 L 97.927 5.929 L 98.903 5.929 L 101.224 0.927 Q 101.145 1.560 101.145 2.132 L 101.145 5.929 L 101.900 5.929 L 101.900 0.000 L 100.890 0.000 Z M 103.328 0.000 L 103.328 5.929 L 107.367 5.929 L 107.367 5.242 L 104.168 5.242 L 104.168 3.388 L 107.104 3.388 L 107.104 2.711 L 104.168 2.711 L 104.168 0.686 L 107.547 0.686 L 107.547 0.000 L 103.328 0.000 Z" fill="#94a3b8" transform="translate(159.923, 76.000) scale(1, -1)" /><rect x="304" y="71" width="4" height="4" fill="#f5a623" />

  <path d="M 350 18 L 360 18 L 360 30" fill="none" stroke="#3b82f6" stroke-width="2" />
  <path d="M 350 82 L 360 82 L 360 70" fill="none" stroke="#3b82f6" stroke-width="2" />
</svg>