<svg xmlns="http://www.w3.org/2000/svg" viewBox="0 0 256 256" width="100%" height="100%">
  <rect width="256" height="256" rx="56" fill="#f8fafc" stroke="#e2e8f0" stroke-width="4"/>
  <polygon points="80,40 100,90 50,80" fill="#94a3b8"/>
  <polygon points="176,40 156,90 206,80" fill="#64748b"/>
  <polygon points="128,50 100,90 128,110" fill="#3b82f6"/>
  <polygon points="128,50 156,90 128,110" fill="#2563eb"/>
  <polygon points="128,110 50,80 30,120 90,120" fill="#cbd5e1"/>
  <polygon points="128,110 206,80 226,120 166,120" fill="#94a3b8"/>
  <polygon points="90,120 30,120 60,170 110,150" fill="#ffffff"/>
  <polygon points="166,120 226,120 196,170 146,150" fill="#e2e8f0"/>
  <circle cx="75" cy="140" r="18" fill="#0d9488"/>
  <circle cx="75" cy="140" r="6" fill="#ffffff"/>
  <circle cx="181" cy="140" r="18" fill="#0d9488"/>
  <circle cx="181" cy="140" r="6" fill="#ffffff"/>
  <polygon points="128,125 105,155 128,200" fill="#f5a623"/>
  <polygon points="128,125 151,155 128,200" fill="#d97706"/>
  <polygon points="110,150 60,170 90,210 128,190" fill="#e2e8f0"/>
  <polygon points="146,150 196,170 166,210 128,190" fill="#cbd5e1"/>
  <polygon points="50,80 30,120 10,100" fill="#3b82f6"/>
  <polygon points="206,80 226,120 246,100" fill="#2563eb"/>
</svg>
