<?xml version="1.0" encoding="UTF-8"?>
<svg xmlns="http://www.w3.org/2000/svg" viewBox="0 0 160 40" width="160" height="40">
  <g transform="translate(2, 4) scale(0.14)">
    <polygon points="80,40 100,90 50,80" fill="#1e293b" />
    <polygon points="176,40 156,90 206,80" fill="#0f172a" />
    <polygon points="128,50 100,90 128,110" fill="#3b82f6" />
    <polygon points="128,50 156,90 128,110" fill="#2563eb" />
    <polygon points="128,110 50,80 30,120 90,120" fill="#64748b" />
    <polygon points="128,110 206,80 226,120 166,120" fill="#475569" />
    <polygon points="90,120 30,120 60,170 110,150" fill="#0a0e14" />
    <polygon points="166,120 226,120 196,170 146,150" fill="#0a0e14" />
    <circle cx="75" cy="140" r="18" fill="#00d4aa" />
    <circle cx="75" cy="140" r="6" fill="#111820" />
    <circle cx="181" cy="140" r="18" fill="#00d4aa" />
    <circle cx="181" cy="140" r="6" fill="#111820" />
    <polygon points="128,125 105,155 128,200" fill="#f5a623" />
    <polygon points="128,125 151,155 128,200" fill="#d97706" />
    <polygon points="110,150 60,170 90,210 128,190" fill="#1e293b" />
    <polygon points="146,150 196,170 166,210 128,190" fill="#0f172a" />
  </g>

  <line x1="42" y1="8" x2="42" y2="32" stroke="#1e293b" stroke-width="1.5" stroke-dasharray="2 2" />

  <path d="M 4.219 11.534 L 4.219 7.275 L 11.259 7.275 L 11.259 5.050 L 4.219 5.050 L 4.219 0.000 L 1.338 0.000 L 1.338 13.759 L 11.484 13.759 L 11.484 11.534 L 4.219 11.534 Z M 23.651 5.294 Q 23.651 2.725 22.226 1.263 Q 20.801 -0.197 18.282 -0.197 Q 15.811 -0.197 14.404 1.269 Q 12.998 2.734 12.998 5.294 Q 12.998 7.841 14.404 9.300 Q 15.811 10.763 18.339 10.763 Q 20.929 10.763 22.289 9.350 Q 23.651 7.941 23.651 5.294 Z M 20.782 5.294 Q 20.782 7.178 20.167 8.028 Q 19.551 8.878 18.379 8.878 Q 15.879 8.878 15.879 5.294 Q 15.879 3.525 16.489 2.603 Q 17.101 1.681 18.251 1.681 Q 20.782 1.681 20.782 5.294 Z M 25.830 0.000 L 25.830 8.088 Q 25.830 8.956 25.805 9.537 Q 25.780 10.119 25.752 10.566 L 28.368 10.566 Q 28.399 10.391 28.446 9.497 Q 28.496 8.603 28.496 8.309 L 28.537 8.309 Q 28.937 9.425 29.249 9.878 Q 29.562 10.331 29.990 10.550 Q 30.421 10.772 31.065 10.772 Q 31.593 10.772 31.915 10.625 L 31.915 8.331 Q 31.249 8.478 30.743 8.478 Q 29.718 8.478 29.146 7.647 Q 28.574 6.816 28.574 5.184 L 28.574 0.000 L 25.830 0.000 Z M 36.201 10.566 L 36.201 4.638 Q 36.201 1.856 38.076 1.856 Q 39.073 1.856 39.682 2.709 Q 40.292 3.566 40.292 4.903 L 40.292 10.566 L 43.039 10.566 L 43.039 2.363 Q 43.039 1.016 43.117 0.000 L 40.498 0.000 Q 40.382 1.406 40.382 2.100 L 40.332 2.100 Q 39.786 0.900 38.939 0.350 Q 38.095 -0.197 36.932 -0.197 Q 35.254 -0.197 34.354 0.834 Q 33.457 1.866 33.457 3.856 L 33.457 10.566 L 36.201 10.566 Z M 54.737 3.088 Q 54.737 1.553 53.480 0.678 Q 52.227 -0.197 50.009 -0.197 Q 47.834 -0.197 46.674 0.491 Q 45.518 1.181 45.137 2.638 L 47.549 2.997 Q 47.755 2.247 48.255 1.934 Q 48.759 1.622 50.009 1.622 Q 51.162 1.622 51.690 1.913 Q 52.218 2.206 52.218 2.831 Q 52.218 3.341 51.793 3.638 Q 51.368 3.934 50.352 4.141 Q 48.027 4.600 47.215 4.994 Q 46.405 5.391 45.980 6.019 Q 45.555 6.650 45.555 7.569 Q 45.555 9.081 46.721 9.925 Q 47.890 10.772 50.030 10.772 Q 51.915 10.772 53.062 10.038 Q 54.209 9.306 54.493 7.919 L 52.062 7.666 Q 51.943 8.309 51.484 8.628 Q 51.024 8.947 50.030 8.947 Q 49.052 8.947 48.565 8.697 Q 48.077 8.447 48.077 7.863 Q 48.077 7.403 48.452 7.134 Q 48.827 6.866 49.718 6.691 Q 50.959 6.434 51.918 6.166 Q 52.880 5.900 53.462 5.528 Q 54.043 5.156 54.390 4.575 Q 54.737 3.994 54.737 3.088 Z M 59.660 -0.175 Q 58.447 -0.175 57.791 0.484 Q 57.138 1.144 57.138 2.481 L 57.138 8.713 L 55.800 8.713 L 55.800 10.566 L 57.275 10.566 L 58.135 13.047 L 59.854 13.047 L 59.854 10.566 L 61.857 10.566 L 61.857 8.713 L 59.854 8.713 L 59.854 3.222 Q 59.854 2.450 60.147 2.084 Q 60.441 1.719 61.054 1.719 Q 61.379 1.719 61.972 1.856 L 61.972 0.156 Q 60.957 -0.175 59.660 -0.175 Z M 67.939 -0.197 Q 65.557 -0.197 64.276 1.216 Q 62.998 2.628 62.998 5.331 Q 62.998 7.950 64.295 9.356 Q 65.595 10.763 67.979 10.763 Q 70.254 10.763 71.454 9.253 Q 72.657 7.744 72.657 4.834 L 72.657 4.756 L 65.879 4.756 Q 65.879 3.213 66.451 2.425 Q 67.023 1.641 68.076 1.641 Q 69.532 1.641 69.914 2.900 L 72.501 2.675 Q 71.376 -0.197 67.939 -0.197 Z M 67.939 9.034 Q 66.973 9.034 66.451 8.359 Q 65.929 7.684 65.898 6.475 L 70.001 6.475 Q 69.923 7.753 69.386 8.394 Q 68.848 9.034 67.939 9.034 Z M 74.737 0.000 L 74.737 8.088 Q 74.737 8.956 74.712 9.537 Q 74.687 10.119 74.659 10.566 L 77.274 10.566 Q 77.305 10.391 77.352 9.497 Q 77.402 8.603 77.402 8.309 L 77.443 8.309 Q 77.843 9.425 78.155 9.878 Q 78.468 10.331 78.896 10.550 Q 79.327 10.772 79.971 10.772 Q 80.499 10.772 80.821 10.625 L 80.821 8.331 Q 80.155 8.478 79.649 8.478 Q 78.624 8.478 78.052 7.647 Q 77.480 6.816 77.480 5.184 L 77.480 0.000 L 74.737 0.000 Z" fill="#ffffff" transform="translate(52.958, 25.000) scale(1, -1)" /><rect x="77" y="31" width="2" height="2" fill="#00d4aa" />
  
  <path d="M 0.637 0.000 L 0.637 3.623 L 1.150 3.623 L 1.150 0.419 L 2.955 0.419 L 2.955 0.000 L 0.637 0.000 Z M 3.843 3.623 L 6.053 3.623 L 6.053 3.204 L 5.205 3.204 L 5.205 0.419 L 6.053 0.419 L 6.053 0.000 L 3.843 0.000 L 3.843 0.419 L 4.692 0.419 L 4.692 3.204 L 3.843 3.204 L 3.843 3.623 Z M 8.516 0.000 L 7.984 0.000 L 6.628 3.623 L 7.167 3.623 L 8.027 1.201 Q 8.110 0.969 8.253 0.451 Q 8.360 0.852 8.478 1.201 L 9.332 3.623 L 9.872 3.623 L 8.516 0.000 Z M 10.336 0.000 L 10.336 3.623 L 12.805 3.623 L 12.805 3.204 L 10.850 3.204 L 10.850 2.070 L 12.644 2.070 L 12.644 1.657 L 10.850 1.657 L 10.850 0.419 L 12.915 0.419 L 12.915 0.000 L 10.336 0.000 Z" fill="#475569" transform="translate(85.036, 34.000) scale(1, -1)" /><rect x="107" y="31" width="2" height="2" fill="#f5a623" />

  <path d="M 142 8 L 147 8 L 147 13" fill="none" stroke="#3b82f6" stroke-width="1.5" />
  <path d="M 142 32 L 147 32 L 147 27" fill="none" stroke="#3b82f6" stroke-width="1.5" />
</svg>